<svg xmlns="http://www.w3.org/2000/svg"><symbol id="svg-container-link-arrow" viewBox="0 0 24 24"><path d="M21.53 11.477l-5-5a.757.757 0 00-.53-.221c-.198 0-.393.08-.532.22s-.22.334-.22.53c0 .198.082.393.222.532l3.702 3.702H3a.75.75 0 100 1.5h16.207l-3.737 3.737a.757.757 0 00-.222.531c0 .197.08.392.22.532s.334.22.531.22a.756.756 0 00.531-.222l5-5c.14-.14.22-.333.22-.53s-.08-.391-.22-.53z"/></symbol><symbol id="svg-container-chevron-left" viewBox="0 0 24 24"><path d="M10.06 12l5.47-5.47a.75.75 0 00-1.06-1.06l-6 6c-.14.139-.22.333-.22.53s.08.391.22.53l6 6c.139.14.333.221.53.222.198 0 .393-.08.532-.22s.22-.334.22-.531a.756.756 0 00-.222-.531z"/></symbol><symbol id="svg-container-search" viewBox="0 0 24 24"><path d="M20.53 19.46l-4.476-4.476a7.31 7.31 0 10-1.079 1.042l4.495 4.495a.75.75 0 001.06-1.061zM4.75 10.333a5.75 5.75 0 119.78 4.095.746.746 0 00-.078.071 5.742 5.742 0 01-9.702-4.165z"/></symbol><symbol id="svg-container-exchange" viewBox="0 0 24 24"><path d="M19 8.646H6.81l1.617 1.617a.753.753 0 010 1.061c-.139.14-.333.22-.53.22s-.392-.081-.53-.22L4.47 8.426a.753.753 0 010-1.06L7.366 4.47a.75.75 0 011.06 1.06L6.812 7.146H19a.75.75 0 110 1.5zM5 15.354h12.19l-1.617-1.617a.756.756 0 01-.22-.53.755.755 0 01.75-.751c.197 0 .392.081.53.22l2.897 2.897a.753.753 0 010 1.06l-2.896 2.897a.757.757 0 01-.53.221.757.757 0 01-.532-.22.757.757 0 01-.22-.53c0-.198.082-.392.221-.531l1.616-1.616H5a.75.75 0 110-1.5z"/></symbol><symbol id="svg-container-shield" viewBox="0 0 24 24"><path d="M12 21.56a.722.722 0 01-.165-.018 11.104 11.104 0 01-8.585-10.55V7.383a2.748 2.748 0 011.756-2.521l4.945-2.024a5.458 5.458 0 014.098 0l4.945 2.023a2.75 2.75 0 011.756 2.522v3.61a11.104 11.104 0 01-8.586 10.55.722.722 0 01-.164.018zM10.518 4.228L5.575 6.25a1.256 1.256 0 00-.825 1.133v3.61A9.575 9.575 0 0012 20.04a9.576 9.576 0 007.25-9.048V7.383a1.257 1.257 0 00-.824-1.134L13.48 4.227a3.95 3.95 0 00-2.963 0z"/></symbol><symbol id="svg-container-world" viewBox="0 0 24 24"><path d="M21.75 12A9.762 9.762 0 0012 2.25a9.75 9.75 0 000 19.5A9.761 9.761 0 0021.75 12zm-1.538-.75h-3.489a16.21 16.21 0 00-1.932-7.003 8.26 8.26 0 015.421 7.003zm-9.401 8.305a14.66 14.66 0 01-2.037-6.805h6.452a14.659 14.659 0 01-2.038 6.806 1.397 1.397 0 01-2.377-.001zM8.774 11.25c.11-2.401.81-4.738 2.037-6.805a1.364 1.364 0 012.377 0 14.659 14.659 0 012.038 6.805zm.434-7.003a16.21 16.21 0 00-1.932 7.003H3.788a8.26 8.26 0 015.42-7.003zm-5.42 8.503h3.488a16.21 16.21 0 001.932 7.003 8.26 8.26 0 01-5.42-7.003zm11.004 7.003a16.21 16.21 0 001.931-7.003h3.489a8.26 8.26 0 01-5.42 7.003z"/></symbol><symbol id="svg-container-auction" viewBox="0 0 24 24"><path fill-rule="evenodd" d="M15.252 3.71a.75.75 0 00-1.06 0L7.12 10.781a.75.75 0 000 1.06l2.829 2.83a.75.75 0 001.06 0l7.072-7.072a.75.75 0 000-1.06L15.252 3.71zm-2.121-1.06a2.25 2.25 0 013.182 0l2.828 2.828a2.25 2.25 0 010 3.182l-3.01 3.01 5.77 5.77a.75.75 0 01-1.061 1.06l-5.77-5.77-3 3.001a2.25 2.25 0 01-3.182 0L6.06 12.902a2.25 2.25 0 010-3.181l7.07-7.072zM3 20.3a.75.75 0 01.75-.75h10a.75.75 0 010 1.5h-10A.75.75 0 013 20.3z" clip-rule="evenodd"/></symbol><symbol id="svg-container-invoice" viewBox="0 0 24 24"><g><path d="M21 2.75H3a.75.75 0 000 1.5h1.25v14.89a2.113 2.113 0 002.11 2.11h11.28a2.112 2.112 0 002.11-2.11V4.25H21a.75.75 0 100-1.5zm-2.75 16.39a.611.611 0 01-.61.61H6.36a.61.61 0 01-.61-.61V4.25h12.5z"/><path d="M11.207 16.75h.043V17a.75.75 0 101.5 0v-.25h.043a2.622 2.622 0 00.639-5.164l-2.499-.627a1.121 1.121 0 01.274-2.21h1.586a1.123 1.123 0 011.122 1.123v.127a.75.75 0 101.5 0v-.127a2.624 2.624 0 00-2.622-2.622h-.043V7a.75.75 0 10-1.5 0v.25h-.044a2.621 2.621 0 00-.638 5.164l2.498.627a1.121 1.121 0 01-.273 2.21h-1.586a1.123 1.123 0 01-1.122-1.122V14a.75.75 0 10-1.5 0v.128a2.624 2.624 0 002.622 2.621z"/></g></symbol><symbol id="svg-container-benefits" viewBox="0 0 24 24"><path fill-rule="evenodd" d="M11 .25a.75.75 0 01.75.75v1.25H13a.75.75 0 010 1.5h-1.25V5a.75.75 0 01-1.5 0V3.75H9a.75.75 0 010-1.5h1.25V1A.75.75 0 0111 .25zm8 2a.75.75 0 01.75.75v1.25H21a.75.75 0 010 1.5h-1.25V7a.75.75 0 01-1.5 0V5.75H17a.75.75 0 010-1.5h1.25V3a.75.75 0 01.75-.75zm-7 6a.75.75 0 000 1.5h1.25V11a.75.75 0 001.5 0V9.75H16a.75.75 0 000-1.5h-1.25V7a.75.75 0 00-1.5 0v1.25zM3.75 15a.25.25 0 01.25-.25h1.984a.25.25 0 01.25.25v6a.25.25 0 01-.25.25H4a.25.25 0 01-.25-.25zm3.815 6.75c-.28.591-.883 1-1.581 1H4A1.75 1.75 0 012.25 21v-6c0-.967.783-1.75 1.75-1.75h1.984a1.75 1.75 0 011.71 1.373l.682-.457a5.414 5.414 0 014.329-.753l2.282.573a2.264 2.264 0 011.71 2.197v.313l1.737-1.307c.9-.678 2.16-.587 2.954.21a2.27 2.27 0 010 3.201l-2.064 2.073a4.728 4.728 0 01-2.42 1.3l-2.918.586a4.718 4.718 0 01-2.078-.05l-2.639-.662a3.216 3.216 0 00-.784-.097zm.169-5.35l1.477-.988a3.914 3.914 0 013.129-.544l2.282.573a.764.764 0 01.576.742v.302a.762.762 0 01-.759.765h-1.48a.75.75 0 000 1.5h2.325c.594 0 1.171-.193 1.646-.55l2.406-1.813a.754.754 0 01.99.071.769.769 0 010 1.084l-2.065 2.072a3.23 3.23 0 01-1.652.888l-2.919.586a3.198 3.198 0 01-1.417-.034l-2.639-.662a4.719 4.719 0 00-1.149-.142h-.751z" clip-rule="evenodd"/></symbol><symbol id="svg-container-server" viewBox="0 0 24 24"><g><path d="M17.75 8a.75.75 0 00-.75-.75h-6a.75.75 0 100 1.5h6a.75.75 0 00.75-.75zM6.47 7.47a.75.75 0 101.06 0 .774.774 0 00-1.06 0z"/><path d="M19.54 12A4.74 4.74 0 0017 3.25H7A4.74 4.74 0 004.46 12 4.74 4.74 0 007 20.75h10A4.741 4.741 0 0019.54 12zM3.75 8A3.254 3.254 0 017 4.75h10a3.25 3.25 0 110 6.5H7A3.254 3.254 0 013.75 8zM17 19.25H7a3.25 3.25 0 110-6.5h10a3.25 3.25 0 110 6.5z"/><path d="M17 15.25h-6a.75.75 0 100 1.5h6a.75.75 0 100-1.5zm-9.856.015a.76.76 0 00-.674.205.76.76 0 00-.22.53.75.75 0 101.44-.29.76.76 0 00-.546-.445z"/></g></symbol><symbol id="svg-container-website" viewBox="0 0 24 24"><g><path d="M19.658 3.25H4.342A2.094 2.094 0 002.25 5.342v13.316a2.094 2.094 0 002.092 2.092h15.316a2.094 2.094 0 002.092-2.092V5.342a2.094 2.094 0 00-2.092-2.092zM4.342 4.75h15.316a.592.592 0 01.592.592V9.25H3.75V5.342a.593.593 0 01.592-.592zm15.316 14.5H4.342a.593.593 0 01-.592-.592V10.75h16.5v7.908a.593.593 0 01-.592.592z"/><path d="M6 8a1 1 0 100-2 1 1 0 000 2zm3 0a1 1 0 100-2 1 1 0 000 2zm3 0a1 1 0 100-2 1 1 0 000 2z"/></g></symbol><symbol id="svg-container-gd-the-go" viewBox="0 0 24 24"><path d="M19.252 3.822c-2.079-1.31-4.815-1-7.255.55-2.433-1.55-5.171-1.86-7.247-.55-3.284 2.074-3.684 7.417-.891 11.933 2.058 3.33 5.277 5.28 8.142 5.244 2.865.036 6.083-1.914 8.142-5.244 2.788-4.516 2.393-9.859-.891-11.933zM5.368 14.802a10.87 10.87 0 01-1.288-2.983 8.611 8.611 0 01-.28-2.81c.125-1.67.797-2.969 1.892-3.661 1.095-.692 2.543-.733 4.085-.115.235.095.464.203.688.321a12.696 12.696 0 00-2.214 2.69c-1.696 2.742-2.213 5.794-1.621 8.225a11.142 11.142 0 01-1.262-1.667zm14.554-2.983a10.9 10.9 0 01-1.288 2.983c-.368.596-.79 1.155-1.262 1.67.53-2.18.17-4.85-1.127-7.356a.33.33 0 00-.206-.17.323.323 0 00-.263.04l-4.043 2.555a.331.331 0 00-.151.338.334.334 0 00.046.122l.593.959a.33.33 0 00.335.152.327.327 0 00.12-.046l2.621-1.655c.085.258.17.51.233.772.248.914.342 1.864.28 2.81-.124 1.67-.797 2.97-1.892 3.662a3.669 3.669 0 01-1.874.548h-.085a3.667 3.667 0 01-1.874-.548c-1.096-.692-1.768-1.992-1.893-3.661a8.639 8.639 0 01.28-2.811 11.145 11.145 0 013.375-5.46 8.442 8.442 0 012.374-1.487c1.537-.617 2.988-.577 4.084.115 1.096.693 1.767 1.992 1.892 3.66a8.635 8.635 0 01-.275 2.808zm-2.313 8.37v-.119c0-.004 0-.008.002-.012a.03.03 0 01.016-.017.028.028 0 01.012-.002h.75l.012.002a.028.028 0 01.01.007.03.03 0 01.008.022v.12a.029.029 0 01-.008.022.027.027 0 01-.021.009h-.275v.747a.028.028 0 01-.01.023.03.03 0 01-.02.009h-.142a.03.03 0 01-.021-.01.034.034 0 01-.009-.022v-.748h-.274a.027.027 0 01-.022-.008.029.029 0 01-.008-.023zm1.312-.122l.21.48.21-.48a.044.044 0 01.044-.027h.224c.004 0 .008 0 .012.002a.028.028 0 01.016.016.029.029 0 01.002.012v.9a.031.031 0 01-.008.021.028.028 0 01-.02.009h-.135a.03.03 0 01-.02-.009.032.032 0 01-.01-.021v-.68l-.219.494a.052.052 0 01-.017.023.048.048 0 01-.028.007h-.108a.047.047 0 01-.027-.007.052.052 0 01-.017-.023l-.22-.494v.68c0 .004 0 .008-.002.012a.03.03 0 01-.027.018h-.135a.028.028 0 01-.02-.009.032.032 0 01-.01-.021v-.9c0-.005.002-.009.003-.012a.028.028 0 01.007-.01.026.026 0 01.01-.006.028.028 0 01.01-.003h.232a.05.05 0 01.027.007.04.04 0 01.016.02z"/></symbol><symbol id="svg-container-arrow-right" viewBox="0 0 24 24"><path d="M5 12.745h12.184l-4.726 4.726a.75.75 0 001.06 1.06l5.994-5.993a.75.75 0 00.238-.543v-.006a.75.75 0 00-.22-.53l-6.012-6.011a.757.757 0 00-.53-.22.757.757 0 00-.53.22c-.14.139-.22.333-.22.53s.08.391.22.53l4.737 4.737H5a.75.75 0 000 1.5z"/></symbol><symbol id="svg-container-wordpress" viewBox="0 0 24 24"><path fill-rule="evenodd" d="M12 2C6.477 2 2 6.477 2 12s4.477 10 10 10 10-4.477 10-10A10 10 0 0012 2zM2.77 12a9.25 9.25 0 01.8-3.76L8 20.31A9.24 9.24 0 012.77 12zM12 21.23a8.998 8.998 0 01-2.61-.38l2.77-8L15 20.58l.06.13a9.36 9.36 0 01-3.06.52zm1.27-13.56c.56 0 1.06-.08 1.06-.08a.39.39 0 00-.06-.77s-1.5.12-2.46.12-2.43-.12-2.43-.12a.39.39 0 00-.06.77s.47 0 1 .08l1.44 3.94-2 6.06-3.37-10c.56 0 1.06-.08 1.06-.08a.39.39 0 00-.06-.77s-1.49.12-2.46.12h-.64a9.23 9.23 0 0113.94-1.75h-.12a1.59 1.59 0 00-1.55 1.63A4.29 4.29 0 0017.47 9c.485.76.748 1.64.76 2.54a8.57 8.57 0 01-.7 3l-.92 3.07zM16.64 20l2.82-8.15a8.659 8.659 0 00.7-3.31 7.117 7.117 0 00-.06-.95A9.24 9.24 0 0116.64 20z" clip-rule="evenodd"/></symbol><symbol id="svg-container-sm-business" viewBox="0 0 24 24"><path d="M22 20.139h-1.473v-8.616a3.018 3.018 0 001.802-1.342 2.831 2.831 0 00.108-2.774l-1.715-3.376a3.129 3.129 0 00-2.784-1.67H6.062a3.353 3.353 0 00-2.783 1.67L1.563 7.406a2.831 2.831 0 00.108 2.775 3.02 3.02 0 001.801 1.341v8.616H2a.75.75 0 100 1.5h20a.75.75 0 100-1.5zM2.952 9.4A1.325 1.325 0 012.9 8.087l1.716-3.378a1.841 1.841 0 011.446-.848h11.877a1.617 1.617 0 011.445.849L21.1 8.087a1.323 1.323 0 01-.052 1.314 1.572 1.572 0 01-1.349.738 1.655 1.655 0 01-1.816-1.413c0-.006-.003-.011-.004-.017 0-.01.004-.02.004-.031a.75.75 0 10-1.5 0 1.67 1.67 0 01-1.817 1.46 1.67 1.67 0 01-1.816-1.46.75.75 0 10-1.5 0 1.67 1.67 0 01-1.816 1.46 1.67 1.67 0 01-1.817-1.46.75.75 0 10-1.5 0 1.678 1.678 0 01-1.83 1.458 1.57 1.57 0 01-1.335-.735zm2.02 2.176c.73-.132 1.395-.5 1.895-1.047a3.525 3.525 0 005.133 0 3.524 3.524 0 005.125.009 3.4 3.4 0 001.902 1.038v8.562h-4.054v-3.695a2.972 2.972 0 00-5.945 0v3.695H4.972zm5.556 4.867a1.472 1.472 0 012.945 0v3.695h-2.945z"/></symbol><symbol id="svg-container-user-circle" viewBox="0 0 24 24"><g><path d="M12.023 15.371a9.355 9.355 0 00-6.546 2.675.758.758 0 00-.227.542c.001.201.086.4.232.539a9.349 9.349 0 0013.04-.052.758.758 0 00.228-.541.758.758 0 00-.233-.54 9.382 9.382 0 00-6.494-2.623zm-.046 4.879a7.852 7.852 0 01-4.836-1.67 7.834 7.834 0 019.718-.038 7.832 7.832 0 01-4.882 1.708z"/><path d="M12 2.25A9.761 9.761 0 002.25 12a9.625 9.625 0 001.055 4.361.75.75 0 101.34-.673A8.147 8.147 0 013.75 12a8.25 8.25 0 1116.5 0 8.109 8.109 0 01-.895 3.685.756.756 0 00-.044.572.757.757 0 00.374.435.75.75 0 001.008-.33A9.586 9.586 0 0021.75 12 9.761 9.761 0 0012 2.25z"/><path d="M15.276 9.526c0-.456-.033-.877-.187-1.289a3.069 3.069 0 00-1.8-1.8c-.411-.154-.875-.187-1.289-.187s-.878.033-1.29.187a3.07 3.07 0 00-1.8 1.8c-.153.412-.186.857-.186 1.29 0 3.674 2.052 4.223 3.276 4.223s3.276-.549 3.276-4.224zm-5.052 0c0-.245-.005-.484.074-.713a1.591 1.591 0 01.988-.989c.23-.079.386-.129.714-.129s.484.05.714.13a1.592 1.592 0 01.988.988c.079.229.074.484.074.713 0 2.724-1.339 2.724-1.776 2.724s-1.776 0-1.776-2.724z"/></g></symbol><symbol id="svg-container-dashboard" viewBox="0 0 24 24"><path d="M10 2.25H3a.75.75 0 00-.75.75v7a.75.75 0 00.75.75h7a.75.75 0 00.75-.75V3a.75.75 0 00-.75-.75zm-.75 7h-5.5v-5.5h5.5zm11.75-7h-7a.75.75 0 00-.75.75v7a.75.75 0 00.75.75h7a.75.75 0 00.75-.75V3a.75.75 0 00-.75-.75zm-.75 7h-5.5v-5.5h5.5zm-10.25 4H3a.75.75 0 00-.75.75v7a.75.75 0 00.75.75h7a.75.75 0 00.75-.75v-7a.75.75 0 00-.75-.75zm-.75 7h-5.5v-5.5h5.5zm11.75-7h-7a.75.75 0 00-.75.75v7a.75.75 0 00.75.75h7a.75.75 0 00.75-.75v-7a.75.75 0 00-.75-.75zm-6.25 1.5h5.5v5.5h-5.5z"/></symbol><symbol id="svg-container-locked" viewBox="0 0 24 24"><path d="M17.132 8.914h-.593V6.822a4.54 4.54 0 00-9.079 0v2.092h-.592a2.252 2.252 0 00-2.25 2.25v8.369a2.253 2.253 0 002.25 2.25h10.264a2.253 2.253 0 002.25-2.25v-8.369a2.253 2.253 0 00-2.25-2.25zM8.96 6.822a3.04 3.04 0 016.079 0v2.092H8.96zm8.922 12.711a.751.751 0 01-.75.75H6.868a.751.751 0 01-.75-.75v-8.369a.75.75 0 01.75-.75h10.264a.751.751 0 01.75.75z"/></symbol><symbol id="svg-container-copy" viewBox="0 0 24 24"><path d="M19.5 2.25h-10A2.252 2.252 0 007.25 4.5v1.25h1.5V4.5a.75.75 0 01.75-.75h10a.75.75 0 01.75.75v10a.75.75 0 01-.75.75h-1.25v1.5h1.25a2.253 2.253 0 002.25-2.25v-10a2.253 2.253 0 00-2.25-2.25zm-5 5h-10A2.252 2.252 0 002.25 9.5v10a2.253 2.253 0 002.25 2.25h10a2.253 2.253 0 002.25-2.25v-10a2.253 2.253 0 00-2.25-2.25zm.75 12.25a.75.75 0 01-.75.75h-10a.75.75 0 01-.75-.75v-10a.75.75 0 01.75-.75h10a.75.75 0 01.75.75z"/></symbol><symbol id="svg-container-shield-check" viewBox="0 0 24 24"><g><path d="M18.994 4.861L14.05 2.838a5.458 5.458 0 00-4.098 0L5.006 4.862A2.748 2.748 0 003.25 7.383v3.61a11.104 11.104 0 008.585 10.55.74.74 0 00.33 0 11.105 11.105 0 008.585-10.55v-3.61a2.75 2.75 0 00-1.756-2.522zm.256 6.131A9.575 9.575 0 0112 20.04a9.575 9.575 0 01-7.25-9.047v-3.61a1.256 1.256 0 01.825-1.133l4.943-2.023a3.95 3.95 0 012.962 0l4.946 2.022a1.257 1.257 0 01.824 1.134z"/><path d="M14.47 9.53l-3.22 3.22-1.72-1.72a.75.75 0 00-1.06 1.061l2.25 2.25c.139.14.333.22.53.22s.391-.08.53-.22l3.75-3.75a.75.75 0 00-1.06-1.06z"/></g></symbol><symbol id="svg-container-mail" viewBox="0 0 24 24"><path d="M19 3.25H5A3.754 3.754 0 001.25 7v10A3.754 3.754 0 005 20.75h14A3.755 3.755 0 0022.75 17V7A3.754 3.754 0 0019 3.25zM5 4.75h14A2.253 2.253 0 0121.25 7v.075l-8.863 5.318a.746.746 0 01-.773.001L2.75 7.075V7A2.252 2.252 0 015 4.75zm14 14.5H5A2.253 2.253 0 012.75 17V8.825l8.093 4.856a2.249 2.249 0 002.315 0l8.092-4.856V17A2.253 2.253 0 0119 19.25z"/></symbol><symbol id="svg-container-megaphone" viewBox="0 0 24 24"><path d="M20.26 3.211a1.875 1.875 0 00-1.925.094l-4.811 3.207H5.875a4.125 4.125 0 000 8.25h.49l.711 4.27c.127.77.567 1.476 1.202 1.93a2.996 2.996 0 002.216.515 2.996 2.996 0 001.93-1.206c.453-.635.64-1.447.51-2.216l-.549-3.292h1.138l4.812 3.208a1.876 1.876 0 002.915-1.56V4.864a1.872 1.872 0 00-.99-1.654zM3.25 10.637a2.628 2.628 0 012.625-2.625H13v5.25H5.875a2.628 2.628 0 01-2.625-2.625zm8.205 7.664c.064.38-.029.782-.253 1.096a1.483 1.483 0 01-.955.597c-.38.063-.782-.03-1.096-.254a1.483 1.483 0 01-.595-.955l-.67-4.022h2.979zm8.295-1.89a.374.374 0 01-.583.312L14.5 13.61V7.664l4.667-3.111a.381.381 0 01.385-.019.38.38 0 01.198.33z"/></symbol><symbol id="svg-container-image" viewBox="0 0 24 24"><path d="M9 6.25a2.75 2.75 0 100 5.5 2.75 2.75 0 000-5.5zm0 4a1.25 1.25 0 110-2.5 1.25 1.25 0 010 2.5zm10.5-8h-15A2.253 2.253 0 002.25 4.5v15a2.253 2.253 0 002.25 2.25h15a2.253 2.253 0 002.25-2.25v-15a2.253 2.253 0 00-2.25-2.25zm.75 17.25a.755.755 0 01-.75.75H5.71l3.27-4.13a.219.219 0 01.18-.09.29.29 0 01.2.08l1.47 1.69a1.754 1.754 0 002.7-.09l3.55-4.61c.13-.17.26-.17.4 0l2.77 3.6zm0-5.25l-1.58-2.06a1.807 1.807 0 00-2.78 0l-3.55 4.61a.225.225 0 01-.19.09.23.23 0 01-.19-.08l-1.48-1.69a1.682 1.682 0 00-1.35-.59 1.727 1.727 0 00-1.33.66l-3.83 4.84a.794.794 0 01-.22-.53v-15a.755.755 0 01.75-.75h15a.756.756 0 01.75.75z"/></symbol><symbol id="svg-container-help" viewBox="0 0 24 24"><g><path d="M12 2.25A9.75 9.75 0 1021.75 12 9.761 9.761 0 0012 2.25zm0 18A8.25 8.25 0 1120.25 12 8.26 8.26 0 0112 20.25z"/><path d="M12 7.083a2.753 2.753 0 00-2.75 2.75.75.75 0 101.5 0 1.25 1.25 0 012.5 0c0 .374-.166.613-.658.945A2.595 2.595 0 0011.25 13v.25a.75.75 0 101.5 0V13c0-.39.171-.636.68-.978a2.555 2.555 0 001.32-2.188A2.753 2.753 0 0012 7.084zm-.004 8.042a1.127 1.127 0 10.004 0z"/></g></symbol><symbol id="svg-container-user" viewBox="0 0 24 24"><path d="M12 12.25c-1.46 0-3.914-.662-3.914-5.092 0-.533.046-1.047.23-1.538a3.662 3.662 0 012.147-2.147c.49-.183 1.037-.262 1.537-.262s1.047.079 1.538.262a3.662 3.662 0 012.147 2.147c.184.49.223 1.005.223 1.538 0 4.43-2.448 5.092-3.908 5.092zm0-7.555a2.98 2.98 0 00-.962.165 2.182 2.182 0 00-1.335 1.336c-.109.308-.11.635-.11.962 0 3.592 1.748 3.592 2.407 3.592s2.408 0 2.408-3.592c0-.327-.002-.654-.11-.962a2.18 2.18 0 00-1.336-1.336A2.976 2.976 0 0012 4.695zm6.988 16.978h-14a1.753 1.753 0 01-1.75-1.75v-.509c0-3.594 4.449-5.741 8.75-5.741s8.75 2.147 8.75 5.742v.508a1.752 1.752 0 01-1.75 1.75zm-7-6.5c-3.487 0-7.25 1.622-7.25 4.242v.509a.253.253 0 00.25.249h14a.253.253 0 00.25-.25v-.508c0-2.62-3.763-4.242-7.25-4.242z"/></symbol><symbol id="svg-container-cart" viewBox="0 0 24 24"><path d="M9.5 19.75a1.25 1.25 0 100-2.5 1.25 1.25 0 000 2.5zm8 0a1.25 1.25 0 100-2.5 1.25 1.25 0 000 2.5zm3.108-12.188A.749.749 0 0020 7.25H7.54l-.829-2.487A.75.75 0 006 4.25H3a.75.75 0 000 1.5h2.46l.823 2.47.01.034 1.996 5.983A.751.751 0 009 14.75h9a.751.751 0 00.712-.513l2-6a.752.752 0 00-.104-.675zM17.46 13.25H9.541l-1.5-4.5h10.918z"/></symbol><symbol id="svg-container-chevron-down" viewBox="0 0 24 24"><path d="M18.53 8.47c-.139-.14-.333-.22-.53-.22s-.391.08-.53.22L12 13.94 6.53 8.47a.75.75 0 00-1.06 1.06l6 6c.139.14.333.22.53.22s.391-.08.53-.22l6-6a.753.753 0 00.22-.53.757.757 0 00-.22-.53z"/></symbol><symbol id="svg-container-phone" viewBox="0 0 24 24"><path d="M16.028 20.953a16.418 16.418 0 01-8.313-4.668 16.408 16.408 0 01-4.668-8.314 3.95 3.95 0 011.057-3.54l.651-.65a2.754 2.754 0 013.89 0l1.173 1.173a2.21 2.21 0 01.648 1.621 2.426 2.426 0 01-.733 1.646l-.826.825a12.019 12.019 0 002.48 3.568 11.97 11.97 0 003.602 2.492l.875-.923a2.254 2.254 0 013.183 0l1.173 1.173a2.747 2.747 0 01.596 2.996c-.261.63-.776 1.072-1.248 1.545a3.91 3.91 0 01-1.273.84 4.047 4.047 0 01-2.267.216zM6.7 4.475c-.328 0-.652.133-.884.366l-.651.651a2.453 2.453 0 00-.644 2.2 14.913 14.913 0 004.254 7.533 14.918 14.918 0 007.533 4.253 2.453 2.453 0 002.2-.642l.651-.652c.232-.233.366-.556.366-.884s-.134-.652-.366-.884l-1.173-1.173a.79.79 0 00-1.061 0l-.922.922a1.5 1.5 0 01-1.614.315 13.49 13.49 0 01-4.063-2.805 13.496 13.496 0 01-2.799-4.046 1.493 1.493 0 01.32-1.644l.825-.825c.316-.295.416-.823.085-1.146L7.584 4.841a1.258 1.258 0 00-.884-.366z"/></symbol><symbol id="svg-container-desktop" viewBox="0 0 24 24"><path fill-rule="evenodd" d="M21.09 17.09a2.25 2.25 0 01-1.591.66h-4.65l.313 2.5H16.8a.75.75 0 110 1.5H7.2a.75.75 0 110-1.5h1.638l.313-2.5H4.5a2.253 2.253 0 01-2.251-2.251V4.5A2.253 2.253 0 014.5 2.25h15.005a2.248 2.248 0 012.245 2.245V15.5a2.25 2.25 0 01-.66 1.591zM3.97 16.03a.752.752 0 01-.22-.531v-1.666h16.5v1.666a.752.752 0 01-.751.751H4.5a.752.752 0 01-.53-.22zM20.031 3.968c.14.14.219.33.219.527v7.838H3.75V4.5a.752.752 0 01.75-.75h15.005c.197 0 .387.079.526.218zM13.338 17.75l.312 2.5h-3.3l.312-2.5z" clip-rule="evenodd"/></symbol><symbol id="svg-container-mobile-phone" viewBox="0 0 24 24"><g><path d="M15.75 2.25h-7.5A2.753 2.753 0 005.5 5v14a2.753 2.753 0 002.75 2.75h7.5A2.752 2.752 0 0018.5 19V5a2.752 2.752 0 00-2.75-2.75zM17 19a1.25 1.25 0 01-1.25 1.25h-7.5A1.251 1.251 0 017 19V5a1.251 1.251 0 011.25-1.25h7.5A1.251 1.251 0 0117 5z"/><path d="M14.5 17.25h-5a.75.75 0 100 1.5h5a.75.75 0 100-1.5z"/></g></symbol><symbol id="svg-container-show" viewBox="0 0 24 24"><g><path d="M12 19.75c-4.523 0-8.21-2.394-10.66-6.926a1.726 1.726 0 010-1.648C3.79 6.645 7.477 4.25 12 4.25c4.523 0 8.209 2.395 10.66 6.926a1.73 1.73 0 010 1.648C20.208 17.356 16.522 19.75 12 19.75zm0-14c-3.995 0-7.137 2.065-9.34 6.14a.232.232 0 000 .22c2.203 4.075 5.345 6.14 9.34 6.14 3.994 0 7.137-2.065 9.34-6.14a.235.235 0 000-.22C19.138 7.815 15.995 5.75 12 5.75z"/><path d="M12 15.75a3.75 3.75 0 110-7.5 3.75 3.75 0 010 7.5zm0-6a2.25 2.25 0 100 4.5 2.25 2.25 0 000-4.5z"/></g></symbol></svg>