<svg xmlns="http://www.w3.org/2000/svg" width="48.5312" height="20" viewBox="0 0 48.5312 20"><defs><style>.a{fill:#767676;}</style></defs><title>img_icon_bug_tld-club</title><circle class="a" cx="2.7773" cy="13.9997" r="2.7773"/><polygon class="a" points="19.711 12.434 19.711 3.652 15.17 3.652 15.17 16.674 16.675 16.674 19.711 16.674 24.403 16.674 24.403 12.434 19.711 12.434"/><path class="a" d="M24.7793,3.552v8.38S24.7793,17,30.8259,17c5.73,0,5.9211-5.043,5.9211-5.043V3.552H32.1055v7.5269s.0576,1.8258-1.38,1.8315c-1.3733.0054-1.2795-1.8315-1.2795-1.8315V3.552Z"/><path class="a" d="M11.4807,7.3485a3.841,3.841,0,0,1,2.8111,1.2293V3.7821A6.9365,6.9365,0,0,0,4.1556,9.9373a6.9862,6.9862,0,0,0,.0667.9521,3.4276,3.4276,0,0,1,1.8965,3.8812,6.9322,6.9322,0,0,0,8.173,1.3219V11.3678a4.6106,4.6106,0,0,1-2.8372,1.1186A2.3553,2.3553,0,0,1,8.9837,9.9893,2.5036,2.5036,0,0,1,11.4807,7.3485Z"/><path class="a" d="M45.8642,9.8455A2.6223,2.6223,0,0,0,47.93,7.1131c0-3.6083-4.0267-3.53-4.0267-3.53l-6.4975-.0262V16.683h6.942s4.1836-.0654,4.1836-3.5037A3.0234,3.0234,0,0,0,45.8642,9.8455Zm-4.079-3.1507h.85a.9317.9317,0,0,1,.9282.9282c0,.9021-.9543.9021-.9543.9021h-.8237Zm1.072,6.7459h-1.072V11.31h1.106s1.208.03,1.208,1.0807S42.8572,13.4407,42.8572,13.4407Z"/></svg>