<svg width="8" height="13" viewBox="0 0 8 13" fill="none" xmlns="http://www.w3.org/2000/svg"><path d="M1.04133 12.6654C1.25119 12.6654 1.45243 12.582 1.60082 12.4336C1.74922 12.2852 1.83261 12.084 1.83266 11.8741L1.83266 0.79133C1.83266 0.581456 1.74929 0.380178 1.60088 0.231775C1.45248 0.083372 1.2512 0 1.04133 0C0.831455 0 0.630178 0.083372 0.481775 0.231775C0.333372 0.380178 0.249998 0.581456 0.249998 0.79133L0.249998 11.8741C0.250051 12.084 0.333442 12.2852 0.481834 12.4336C0.630226 12.582 0.831471 12.6654 1.04133 12.6654Z" fill="#111111"/><path d="M6.95867 12.6654C7.16853 12.6654 7.36977 12.582 7.51817 12.4336C7.66656 12.2852 7.74995 12.084 7.75 11.8741L7.75 0.79133C7.75 0.581456 7.66663 0.380178 7.51823 0.231775C7.36982 0.083372 7.16854 0 6.95867 0C6.7488 0 6.54752 0.083372 6.39912 0.231775C6.25071 0.380178 6.16734 0.581456 6.16734 0.79133L6.16734 11.8741C6.16739 12.084 6.25078 12.2852 6.39918 12.4336C6.54757 12.582 6.74881 12.6654 6.95867 12.6654Z" fill="#111111"/></svg>